/* XPM */
static char *ea34d346fa4245acb35b14a61413a372DU8yvtWQmL0bv0Lq[] = {
/* columns rows colors chars-per-pixel */
"32 32 56 1 ",
"  c black",
". c #010000",
"X c #000100",
"o c #020001",
"O c #000002",
"+ c #010002",
"@ c #036103",
"# c #046202",
"$ c #036204",
"% c #066104",
"& c #046204",
"* c #046106",
"= c #6F6E6C",
"- c #716D6A",
"; c #706C6B",
": c #726E6B",
"> c #716D6C",
", c #726C6C",
"< c #716D6E",
"1 c #FD0000",
"2 c #FD0100",
"3 c #FE0000",
"4 c #FF0101",
"5 c #FE0002",
"6 c #F94642",
"7 c #F94544",
"8 c #F84644",
"9 c #FA4645",
"0 c #F94546",
"q c #048705",
"w c #068706",
"e c #038906",
"r c #058804",
"t c #058806",
"y c #068907",
"u c #058808",
"i c #0BB20D",
"p c #0CB10C",
"a c #0CB10D",
"s c #0FB10D",
"d c #0DB20D",
"f c #0CB30D",
"g c #0FB10E",
"h c #0DB20E",
"j c #0CB30E",
"k c #0EB30E",
"l c #0EB30F",
"z c #0DB40E",
"x c #0DB40F",
"c c #0DB210",
"v c #FEFFFD",
"b c #FFFFFD",
"n c #FEFEFE",
"m c #FFFEFF",
"M c #FEFFFF",
"N c white",
/* pixels */
"hhhhhhhhhhhhhhhhhhhhhhhhhhhhhhhh",
"hhihhhthhhchhhhhhhhzhhhhhhlhtthh",
"hhhhdtthhhhhhlhhhhhhhhhthhhttdhh",
"hhthhthhhhhhhlhhhhhhchhtttthwhwh",
"hitwtrhhzhh          zhhhhtttrth",
"hhchtthhh              hhhhttthh",
"hhhihtwh   7777776444   hhhhthhi",
"hchhhhw  77767714444444  hhhhzih",
"hhhhhh  NN77741414141141  hhhhll",
"hhhhh  7N7741441414144144  hhchh",
"hhhhc  766444114144414414  hhhll",
"hizh  67744411414111411444  hhgs",
"hchh  77414141111414114144  chhh",
"hhhh  74141414444141141444  hshh",
"hhhh   414114144441441444   hhhh",
"hhhh    4141141   441444    hhhh",
"hhhh  N  44444 NNN 4444  N  hhhh",
"hhhh  NN      NNNNN     NN  hhhh",
"hhhh  NNN     NNNN>    NN>  hhhh",
"hhhz  NNNNNNN NNN>: NNNNN>  hhhh",
"hchh  NNNNNNNN >>> NNNNN>>  hhhh",
"lhchh  NNNNNNNN   NNNNN;>  hhhhh",
"hhhhh  NNNNNNNNNNNNNNNN;>  &&hhh",
"hhhhhh  NNNNNNNNNNNNN>:=  &&&#@h",
"shhhhhh  NNNNNNNNNN>>:>  $&&&&&&",
"ahhhtthh   NNNN>:>>:>   &&&&$&&&",
"wwdtthhhh              &&&&&#&&&",
"httthhhhhhh          &&&&&&&&#hc",
"lhthhhhhhhhhhhhhzhhhhhhhhhahhhhh",
"hhtwhhhhhhhhhhhhhhhhhhhhhhhchhhh",
"hhhhhhhhhhhhhhhhhhhhhchihhhhchhh",
"hhhhhhhhhhhihhhhhhhhhhhhhhhhhhhh"
};
