/* XPM */
static char *ed45f99bca8c4573df368bdfd0f275bcMwqhFediH50GdbCZ[] = {
/* columns rows colors chars-per-pixel */
"32 32 38 1 ",
"  c #036103",
". c #046202",
"X c #036204",
"o c #066104",
"O c #046204",
"+ c #046106",
"@ c #066006",
"# c #6F5D2D",
"$ c #705F2B",
"% c #705E2C",
"& c #725E2C",
"* c #705E2E",
"= c #048705",
"- c #068706",
"; c #038906",
": c #058806",
"> c #068907",
", c #068708",
"< c #058808",
"1 c #0BB20D",
"2 c #0CB10D",
"3 c #0DB20D",
"4 c #0CB30D",
"5 c #0CB10F",
"6 c #0FB10E",
"7 c #0DB20E",
"8 c #0CB30E",
"9 c #0EB30F",
"0 c #0DB40F",
"q c #10B20F",
"w c #0FB110",
"e c #0CB210",
"r c #0DB210",
"t c #FFDD00",
"y c #ED52C7",
"u c #EF52C7",
"i c #ED52C8",
"p c #EE53C9",
/* pixels */
"7777777r777777770777r777r7777777",
"r7777777777777777777777777077777",
"7777=>=77777777777777=>=7wq77777",
">>==>,>=>=>777777777>==>>=>77777",
"777=;;>77770777OoO77=<==>7777377",
"77771777770o70o 77777q7773777747",
"777717777777  77rq777q777yy37777",
"7777777777770o77777777777yy77777",
"7777777777777 717777777yyttyyr77",
"7777777w77777o777777777iyttyy777",
"7777717777777777O00177777yyO7777",
"7777777717777777XXO7rX 77yyOO777",
"77777777777777r>>7XO OXO7777O777",
"7777O7q727770777=>==o77Or777O777",
"777OOO77o 70777777r77777777qO7r7",
"77OO77OOo o 77777777777777777777",
"q7O777O7777O+7q77777777777777777",
"7r777777777777777777777777777777",
"77777777777777777777777777777777",
"777777777777r777r0777777oO777r77",
"7==,=77r777r777r7oO777%O0Oo07770",
"7=>>=,>=777777777 7OO%%%$7 o7777",
"7=>=2q77777777777777O%%%%%#77777",
"777772772%$$77717777OOrrr7707777",
"77777777%%%%7777777777777777>=>=",
"77q77777%%%%77777777777777777>=>",
"777777777$1717777777077777777>>=",
"7r77777777777777777=>77777777777",
"7777777777777777077=,=>777777773",
"777=777>=>777777777==>=>77777777",
"7>=>=>=>=>>=>==7q77>>==777773777",
"7>>=>=>=>>===>>777r=777777717777"
};
