/* XPM */
static char *_9c4481833fe4c2df539a3f6fba0d985vT6MxlFkywbciB2X[] = {
/* columns rows colors chars-per-pixel */
"32 32 63 1 ",
"  c black",
". c #010000",
"X c #000100",
"o c #010101",
"O c #020001",
"+ c #000002",
"@ c #010103",
"# c #060500",
"$ c #070700",
"% c #070601",
"& c #060701",
"* c #070602",
"= c #070802",
"- c #3A3935",
"; c #393A35",
": c #3B3A35",
"> c #3B3A36",
", c #3A3B36",
"< c #3A3A38",
"1 c #3B3A38",
"2 c #217922",
"3 c #217B23",
"4 c #227A23",
"5 c #247A23",
"6 c #227A24",
"7 c #247924",
"8 c #0CB10D",
"9 c #0FB10D",
"0 c #0DB20D",
"q c #0FB10E",
"w c #0DB20E",
"e c #0CB30E",
"r c #0EB30E",
"t c #0EB30F",
"y c #10B20E",
"u c #10B20F",
"i c #0DB210",
"p c #FEDC00",
"a c #FFDC00",
"s c #FFDD00",
"d c #FEDE00",
"f c #FFDE01",
"g c #FFDC02",
"h c #FFDD02",
"j c #B6A356",
"k c #B6A357",
"l c #B8A257",
"z c #B7A458",
"x c #B9A358",
"c c #E5CD6D",
"v c #E5CC6F",
"b c #E4CD6F",
"n c #E7CD6E",
"m c #E6CE6E",
"M c #E7CF6F",
"N c #E6CD70",
"B c #E7CD70",
"V c #E6CD71",
"C c #E5CE70",
"Z c #E7CE71",
"A c #E7CE72",
"S c #B2B2AA",
"D c white",
/* pixels */
"ttt8ttt9tt8t8tttt8t8t8t8yttt8t8t",
"tt8tt8t8ttt8t8tt8t8ttt8tt88898t8",
"8t88tt8t  hhphhpphpphh  8ttt8t8t",
"t8tt8t    hhpphhhhhhhh    t8t8t8",
"8tttt     hhhhhhhhhhhh     t88tt",
"tt8t      hhhhhhhhhhhh      8t89",
"8tt   @   hhhhhhhhhhhh       8t8",
"t8t       hhhhhhhhhhhp       t8t",
"8t8       hhhhhhhhhhhh       ttt",
"98t       hhhhhhhhhhhh       t88",
"8tt       hhhhhhhhhhhh       8t8",
"ttt       hhhhhhhhhhhh       t8t",
"8tt       hhhhhhhhhhhh       ttt",
"t8t<>>>>>>>>>>>>>>>>>>>>>>><<t8t",
"8t8 >>>>>>>>>>>>>>>>>>>>>>>> tt8",
"t8t       >>>>>>>>>>>        8t8",
"tte          >,>>>>          tt8",
"ttt                        k ttt",
"t8t V                     zk 8tt",
"ttt VV                  zzxV tt8",
"8t8 VnV               lkkMVV 8tt",
"t8t Vn DDD lkkkkkkkkz DDD nV tt8",
"9tt VV DDS zkkkkkkkzz DDS Vn t8t",
"8tt nV D#S VnkkkkkknV D#S VV 8t8",
"t8t nV D#S VACVVnVVVV D#S nn ete",
"88t cV D=S VVnn#VVnnV D=S VV ett",
"tt8 VnVVMnVVnVM##MVVnVnnVVV  ttt",
"t8t  VVnVcnnCCVVnVnVnVnVVnn 22tt",
"t888   VAVVV#VVVCVV=VnVVAA  265t",
"8ttttt   VnV##===###VVV   272222",
"t8t8t8tt                2265622t",
"i88t8t8t5552663555555525552622tt"
};
