/* XPM */
static char *a432e95f573b43e3d5a9cf3359166340CQEzHv4XKBY4llPB[] = {
/* columns rows colors chars-per-pixel */
"32 32 39 1 ",
"  c black",
". c #010000",
"X c #000100",
"o c #010101",
"O c #020001",
"+ c #000002",
"@ c #010002",
"# c #036103",
"$ c #046202",
"% c #036204",
"& c #046204",
"* c #046106",
"= c #6F5D2B",
"- c #6F5E2A",
"; c #6F5D2D",
": c #6F5F2C",
"> c #715D2B",
", c #705F2B",
"< c #705E2C",
"1 c #715F2D",
"2 c #725E2C",
"3 c #705E2E",
"4 c #70602D",
"5 c #0CB10C",
"6 c #0CB10D",
"7 c #0DB20D",
"8 c #0CB30D",
"9 c #0FB10E",
"0 c #0DB20E",
"q c #0CB30E",
"w c #0EB30F",
"e c #0DB40F",
"r c #0FB110",
"t c #0DB210",
"y c #FFDC00",
"u c #FFDD00",
"i c #FEDE00",
"p c #FFDE01",
"a c #FFDD02",
/* pixels */
"00q05ee005te00000000t500000qqe00",
"00000t00tt.............000000000",
"t00500005...............tt000000",
"000500000..<.:4..<::.<<..q000000",
"00tt000...:<.<:..:<<.:<<.+000000",
"000000q.+<<<.<<..<<<.<<3...t0000",
"00t00t...4<<.<<..<<<.<3<.:..t000",
"00000....<<:.<:..:<<+3<<.<<..000",
"000e...<.<<<.<<..<<<.<<<.:<<..t0",
"0000..:-.:<<.<<..-<<.,<<.<<<..00",
"0000..,,.,<<.:-..<<<.<,,.<<<..00",
"tt0..<<,.aa<.::..<<<.aa,.:3<..05",
"000..:,aaaaaa-<..<<aaaaaa<<<..t0",
"000..<aa.-<-aa:..:,a.<,,ay<-..00",
"00t..aa<.<<<.a-..,aa.<<:.a:<..05",
"000..a-<.:<<.a4..,a,.<<-.,a4..t5",
"500..y,,.<<<.aa..<a,.:<<.aa<..00",
"t00..-y,.<<<.a-..:aa.,<<aa<<..00",
"00t..:aa.:,<aa<..<-aaaaaa<<<..00",
"00t..<<aa<-aa-:..:,,aaaa.-<<..00",
"000..::<aaaa.:<..:<<.aa,.<<<..05",
"000..<<<.,,,.<<..<<<.,-<.<<<..qt",
"q00..:<<.<,<.::..<<<.<<<.:<<..00",
"00t..<<:.<<<.<<..:<:.:<<+<<:..00",
"5q0..<<<.::<.<<..<<<.<<<.<<<..tt",
"t50..:<<.<<<.<:..<<<.:<3.<<<..e5",
"000..<<<.<<<.<<..:<<.:<<.<<4..00",
"000..<<<.<<-.:<..<<:.<<<.:<<..00",
"00t..:<<.:<4.<:..:<<.:<:.<<:..te",
"050......................+....00",
"00#&&&&&%&&&%&&&&&%&&&&&%*&&&&$e",
"00%&&$&%&%&&&&&&&&&&&&&&&%%&&&%0"
};
