/* XPM */
static char *b83be8090e1d4a2fb9cd4a88fdea177dppHRsvpf50A7kHNK[] = {
/* columns rows colors chars-per-pixel */
"32 32 63 1 ",
"  c black",
". c #010000",
"X c #000100",
"o c #010101",
"O c #000201",
"+ c #000002",
"@ c #010002",
"# c #010103",
"$ c #362B0B",
"% c #362C09",
"& c #352C0B",
"* c #372D0A",
"= c #372C0C",
"- c #362D0C",
"; c #372C0E",
": c #382B0B",
"> c #382E0B",
", c #392C0C",
"< c #382D0D",
"1 c #3A2D0D",
"2 c #382D0F",
"3 c #036103",
"4 c #036302",
"5 c #046202",
"6 c #036204",
"7 c #036206",
"8 c #066104",
"9 c #046204",
"0 c #056305",
"q c #046106",
"w c #54451A",
"e c #54471A",
"r c #55471A",
"t c #55461B",
"y c #54471B",
"u c #57461B",
"i c #55461D",
"p c #56471C",
"a c #56471E",
"s c #58471C",
"d c #56481B",
"f c #6F5D2B",
"g c #6E5E2B",
"h c #6F5F2B",
"j c #6F5F2C",
"k c #705F2B",
"l c #705E2C",
"z c #715F2D",
"x c #725E2C",
"c c #725D2E",
"v c #705E2E",
"b c #715F2F",
"n c #0CB10D",
"m c #0FB10D",
"M c #0DB20D",
"N c #0FB10E",
"B c #0DB20E",
"V c #0CB30E",
"C c #0EB30E",
"Z c #0EB30F",
"A c #0DB40F",
"S c #10B20F",
"D c #0DB210",
/* pixels */
"BDBBBBBBBBBBBBBBBBBBBBBCVBB9BBSB",
"BBBB88BBBBBDBBBBBBBBBBBDBBB9BBBB",
"BBBB3BBBBBBBBBBBBVBBBBBBBBB9BBBB",
"B39B0BBBC.=............DBVB39BBB",
"BB999BBB..jkvkkvjkkvk....BB99BBB",
"BCB99BB..kvkkwvzkvxvzw....B699BB",
"BBB96B..vkfkvwzkkvvwiiw.#...99BB",
"BBB96...kkvkvdwvwwwiuwsdi....BBS",
"CB96...kwvvkjwiwddwwiwsswws...BB",
"DB09..jvikvvdwwdyiwiwyywwiwd..VB",
"B69..vvkiwkswsddwieyswwswiwwi..B",
"BBD..kkkwwiwwiwwwwyswdeswwwdw..B",
"BB..jvvkwuswswdws=dww===www&i...",
"B..vwwkviwwwyyi===-id===siw=w=..",
"B..vwwzzwsw-wi-===www===dwy=i=..",
"...jwwwwuws<dw-:==wdi2===wd=i=..",
"..ksyyysi=w:wi=<===iw<<==ws=w=..",
"..vdwesw-=s<is====<ww=<:=dw===..",
"..vwiwii-:==:w<===<======ww===.#",
"..zwwds===<<:i=========:=-w<==..",
"..jwwdw=<:-:=i:=<:=<:<=<==e===.O",
"..kidw==i<====<:=====:========..",
"..vwiw==s=s===================..",
"..vwwd==y====w===============>..",
"..jwww<<========<=======-====...",
"..jyiw=&:-==&===<==<======<<=..0",
"...siw==-:-=:====<=========<=..0",
"CV..iw<=:&-===&==:=<=====<==...6",
"BB..w<-:===-=====:==========..66",
"BB....====....2==<===2===.....99",
"BBBB....#......=-<........#..699",
"BCBBBBB....................66999"
};
